<svg width="74" height="60" viewBox="0 0 74 60" fill="none" xmlns="http://www.w3.org/2000/svg">
<path fill-rule="evenodd" clip-rule="evenodd" d="M37 0C35.5325 6.4565e-05 34.106 0.484341 32.9418 1.37773C31.7776 2.27111 30.9406 3.52368 30.5608 4.94118C30.181 6.35869 30.2795 7.86191 30.841 9.21772C31.4026 10.5735 32.3958 11.7062 33.6667 12.44V16.6667H23.6667C13 16.6667 10.3333 25.5567 10.3333 30V53.3333C10.3333 55.5567 11.6667 60 17 60H20.3333V46.6667C20.3333 45.7826 20.6845 44.9348 21.3097 44.3096C21.9348 43.6845 22.7826 43.3333 23.6667 43.3333H50.3333C51.2174 43.3333 52.0653 43.6845 52.6904 44.3096C53.3155 44.9348 53.6667 45.7826 53.6667 46.6667V60H57C62.3333 60 63.6667 55.5567 63.6667 53.3333V30C63.6667 19.3333 54.7767 16.6667 50.3333 16.6667H40.3333V12.44C41.6042 11.7062 42.5974 10.5735 43.159 9.21772C43.7205 7.86191 43.819 6.35869 43.4392 4.94118C43.0594 3.52368 42.2225 2.27111 41.0582 1.37773C39.894 0.484341 38.4675 6.4565e-05 37 0ZM47 60V50H40.3333V60H47ZM33.6667 60V50H27V60H33.6667ZM67 50V33.3333C69.2234 33.3333 73.6667 34.6667 73.6667 40V43.3333C73.6667 45.5567 72.3333 50 67 50ZM7.00001 33.3333V50C1.66668 50 0.333344 45.5567 0.333344 43.3333V40C0.333344 34.6667 4.77668 33.3333 7.00001 33.3333ZM27 30C26.116 30 25.2681 30.3512 24.643 30.9763C24.0179 31.6014 23.6667 32.4493 23.6667 33.3333C23.6667 34.2174 24.0179 35.0652 24.643 35.6904C25.2681 36.3155 26.116 36.6667 27 36.6667H27.0033C27.8874 36.6667 28.7352 36.3155 29.3604 35.6904C29.9855 35.0652 30.3367 34.2174 30.3367 33.3333C30.3367 32.4493 29.9855 31.6014 29.3604 30.9763C28.7352 30.3512 27.8874 30 27.0033 30H27ZM43.6667 33.3333C43.6667 32.4493 44.0179 31.6014 44.643 30.9763C45.2681 30.3512 46.116 30 47 30H47.0033C47.8874 30 48.7352 30.3512 49.3604 30.9763C49.9855 31.6014 50.3367 32.4493 50.3367 33.3333C50.3367 34.2174 49.9855 35.0652 49.3604 35.6904C48.7352 36.3155 47.8874 36.6667 47.0033 36.6667H47C46.116 36.6667 45.2681 36.3155 44.643 35.6904C44.0179 35.0652 43.6667 34.2174 43.6667 33.3333Z" fill="white"/>
</svg>
