<svg width="60" height="68" viewBox="0 0 60 68" fill="none" xmlns="http://www.w3.org/2000/svg">
<path d="M8.66667 0.666687C6.36812 0.666687 4.16372 1.57978 2.53841 3.20509C0.913092 4.83041 0 7.03481 0 9.33335V25.3334C0 26.4715 0.22417 27.5985 0.659711 28.6499C1.09525 29.7014 1.73363 30.6568 2.53841 31.4616C4.16372 33.0869 6.36812 34 8.66667 34H18C20.2985 34 22.5029 33.0869 24.1283 31.4616C25.7536 29.8363 26.6667 27.6319 26.6667 25.3334V9.33335C26.6667 7.03481 25.7536 4.83041 24.1283 3.20509C22.5029 1.57978 20.2985 0.666687 18 0.666687H8.66667ZM8.66667 40.6667C6.36812 40.6667 4.16372 41.5798 2.53841 43.2051C0.913092 44.8304 0 47.0348 0 49.3334V58.6667C0 60.9652 0.913092 63.1696 2.53841 64.7949C4.16372 66.4203 6.36812 67.3334 8.66667 67.3334H18C20.2985 67.3334 22.5029 66.4203 24.1283 64.7949C25.7536 63.1696 26.6667 60.9652 26.6667 58.6667V49.3334C26.6667 47.0348 25.7536 44.8304 24.1283 43.2051C22.5029 41.5798 20.2985 40.6667 18 40.6667H8.66667ZM42 0.666687C39.7015 0.666687 37.4971 1.57978 35.8717 3.20509C34.2464 4.83041 33.3333 7.03481 33.3333 9.33335V18.6667C33.3333 20.9652 34.2464 23.1696 35.8717 24.7949C37.4971 26.4203 39.7015 27.3334 42 27.3334H51.3333C52.4715 27.3334 53.5984 27.1092 54.6499 26.6736C55.7014 26.2381 56.6568 25.5997 57.4616 24.7949C58.2664 23.9902 58.9047 23.0348 59.3403 21.9833C59.7758 20.9318 60 19.8048 60 18.6667V9.33335C60 8.19523 59.7758 7.06825 59.3403 6.01676C58.9047 4.96528 58.2664 4.00987 57.4616 3.20509C56.6568 2.40032 55.7014 1.76194 54.6499 1.3264C53.5984 0.890857 52.4715 0.666687 51.3333 0.666687H42ZM42 34C39.7015 34 37.4971 34.9131 35.8717 36.5384C34.2464 38.1637 33.3333 40.3681 33.3333 42.6667V58.6667C33.3333 60.9652 34.2464 63.1696 35.8717 64.7949C37.4971 66.4203 39.7015 67.3334 42 67.3334H51.3333C52.4715 67.3334 53.5984 67.1092 54.6499 66.6736C55.7014 66.2381 56.6568 65.5997 57.4616 64.7949C58.2664 63.9902 58.9047 63.0348 59.3403 61.9833C59.7758 60.9318 60 59.8048 60 58.6667V42.6667C60 41.5286 59.7758 40.4016 59.3403 39.3501C58.9047 38.2986 58.2664 37.3432 57.4616 36.5384C56.6568 35.7337 55.7014 35.0953 54.6499 34.6597C53.5984 34.2242 52.4715 34 51.3333 34H42Z" fill="white"/>
</svg>
