<svg width="68" height="68" viewBox="0 0 68 68" fill="none" xmlns="http://www.w3.org/2000/svg">
<path d="M10.6667 0.666687C8.01451 0.666687 5.47097 1.72026 3.5956 3.59562C1.72024 5.47098 0.666672 8.01452 0.666672 10.6667V67.3334H57.3333C59.9855 67.3334 62.529 66.2798 64.4044 64.4044C66.2798 62.5291 67.3333 59.9855 67.3333 57.3334V24C67.3333 21.3479 66.2798 18.8043 64.4044 16.929C62.529 15.0536 59.9855 14 57.3333 14H10.6667C9.78262 14 8.93477 13.6488 8.30965 13.0237C7.68453 12.3986 7.33334 11.5507 7.33334 10.6667C7.33334 9.78263 7.68453 8.93479 8.30965 8.30966C8.93477 7.68454 9.78262 7.33335 10.6667 7.33335H60.6667V0.666687H10.6667ZM54 44H44V37.3334H54V44Z" fill="white"/>
</svg>
