<svg width="42" height="38" viewBox="0 0 42 38" fill="none" xmlns="http://www.w3.org/2000/svg">
<path d="M25.1667 10.6667V6.50004C25.1667 5.39497 24.7277 4.33516 23.9463 3.55376C23.1649 2.77236 22.1051 2.33337 21 2.33337H6.41667C5.3116 2.33337 4.25179 2.77236 3.47039 3.55376C2.68899 4.33516 2.25 5.39497 2.25 6.50004V31.5C2.25 32.6051 2.68899 33.6649 3.47039 34.4463C4.25179 35.2277 5.3116 35.6667 6.41667 35.6667H21C22.1051 35.6667 23.1649 35.2277 23.9463 34.4463C24.7277 33.6649 25.1667 32.6051 25.1667 31.5V27.3334" stroke="white" stroke-width="4.16667" stroke-linecap="round" stroke-linejoin="round"/>
<path d="M14.75 19H39.75M39.75 19L33.5 12.75M39.75 19L33.5 25.25" stroke="white" stroke-width="4.16667" stroke-linecap="round" stroke-linejoin="round"/>
</svg>
