<svg width="80" height="60" viewBox="0 0 80 60" fill="none" xmlns="http://www.w3.org/2000/svg">
<path fill-rule="evenodd" clip-rule="evenodd" d="M0 8.66669C0 6.54495 0.842855 4.51012 2.34315 3.00983C3.84344 1.50954 5.87827 0.666687 8 0.666687H72C74.1217 0.666687 76.1566 1.50954 77.6569 3.00983C79.1572 4.51012 80 6.54495 80 8.66669V51.3333C80 53.4551 79.1572 55.4899 77.6569 56.9902C76.1566 58.4905 74.1217 59.3333 72 59.3333H8C5.87827 59.3333 3.84344 58.4905 2.34315 56.9902C0.842855 55.4899 0 53.4551 0 51.3333L0 8.66669ZM21.3333 11.3334H10.6667V22H16V16.6667H21.3333V11.3334ZM64 16.6667H58.6667V11.3334H69.3333V22H64V16.6667ZM40 16.6667C36.4638 16.6667 33.0724 18.0714 30.5719 20.5719C28.0714 23.0724 26.6667 26.4638 26.6667 30C26.6667 33.5362 28.0714 36.9276 30.5719 39.4281C33.0724 41.9286 36.4638 43.3333 40 43.3333C43.5362 43.3333 46.9276 41.9286 49.4281 39.4281C51.9286 36.9276 53.3333 33.5362 53.3333 30C53.3333 26.4638 51.9286 23.0724 49.4281 20.5719C46.9276 18.0714 43.5362 16.6667 40 16.6667ZM58.6667 43.3333V48.6667H69.3333V38H64V43.3333H58.6667ZM10.6667 38H16V43.3333H21.3333V48.6667H10.6667V38Z" fill="white"/>
</svg>
